# xmcd
#
# Track frame offsets: 
#        150
#        17926
#        43576
#        61972
#        80758
#        104984
#        120943
#        136232
#        154921
#        172589
#        190472
#        217092
#        233682
#        256241
#        272747
#
# Disc length: 3833 seconds
#
# Revision: 3
# Processed by: cddbd v1.5.2PL0 Copyright (c) Steve Scherf et al.
# Submitted via: ExactAudioCopy v0.99pb5
#
DISCID=d30ef70f
DTITLE=Various Artist - Peter's Pop Hits 84-85 - CD 1
DYEAR=1999
DGENRE=Pop
TTITLE0=Frankie Goes To Hollywood - Relax
TTITLE1=Talk Talk - Such a shame
TTITLE2=Ultravox - Dancing with tears in my eyes
TTITLE3=Billy Idol - Eyes without a face
TTITLE4=Pat Benatar - Love is a battlefield
TTITLE5=Limahl - The never ending story
TTITLE6=Flying Pickets - Only you
TTITLE7=China Crisis - Wishful thinking
TTITLE8=Catch - 25 years
TTITLE9=Gazebo - Lunatic
TTITLE10=P. Lion - Happy children
TTITLE11=Hazell Dean - Searchin' (I gotta find a man)
TTITLE12=Scotch - Disco Band
TTITLE13=Evelyn Thomas - High energy
TTITLE14=Fun Fun - Happy station
EXTD=
EXTT0=
EXTT1=
EXTT2=
EXTT3=
EXTT4=
EXTT5=
EXTT6=
EXTT7=
EXTT8=
EXTT9=
EXTT10=
EXTT11=
EXTT12=
EXTT13=
EXTT14=
PLAYORDER=
